<svg width="25" height="23" viewBox="0 0 25 23" fill="none" xmlns="http://www.w3.org/2000/svg">
<path d="M12.5 0.625C5.85416 0.625 0.416656 4.95083 0.416656 10.2917C0.477073 12.8896 1.69749 15.3304 3.73957 16.9375C3.73957 17.6625 3.23207 19.5596 0.416656 22.375C3.28041 22.2421 6.02332 21.1667 8.23457 19.3542C9.61207 19.7529 11.0621 19.9583 12.5 19.9583C19.1458 19.9583 24.5833 15.6325 24.5833 10.2917C24.5833 4.95083 19.1458 0.625 12.5 0.625ZM12.5 17.5417C7.15916 17.5417 2.83332 14.2913 2.83332 10.2917C2.83332 6.29208 7.15916 3.04167 12.5 3.04167C17.8408 3.04167 22.1667 6.29208 22.1667 10.2917C22.1667 14.2913 17.8408 17.5417 12.5 17.5417ZM18.5417 11.5V9.08333H16.125V11.5H18.5417ZM13.7083 11.5V9.08333H11.2917V11.5H13.7083ZM8.87499 11.5V9.08333H6.45832V11.5H8.87499Z" fill="white"/>
</svg>
