<svg width="30" height="30" viewBox="0 0 30 30" fill="none" xmlns="http://www.w3.org/2000/svg">
<path d="M29.6112 15.4842L16.1127 0.475041C15.5442 -0.158347 14.4524 -0.158347 13.8839 0.475041L0.385433 15.4842C0.191139 15.6998 0.0636056 15.9671 0.01834 16.2539C-0.0269255 16.5406 0.0120268 16.8343 0.130461 17.0992C0.370434 17.6411 0.907374 17.9893 1.49981 17.9893H4.49947V28.4957C4.49947 28.8938 4.65749 29.2756 4.93876 29.557C5.22004 29.8385 5.60152 29.9966 5.99931 29.9966H10.4988C10.8966 29.9966 11.2781 29.8385 11.5593 29.557C11.8406 29.2756 11.9986 28.8938 11.9986 28.4957V22.492H17.998V28.4957C17.998 28.8938 18.156 29.2756 18.4373 29.557C18.7185 29.8385 19.1 29.9966 19.4978 29.9966H23.9973C24.3951 29.9966 24.7766 29.8385 25.0578 29.557C25.3391 29.2756 25.4971 28.8938 25.4971 28.4957V17.9893H28.4968C28.7873 17.9905 29.0718 17.9072 29.3158 17.7494C29.5597 17.5916 29.7525 17.3661 29.8706 17.1006C29.9888 16.835 30.0271 16.5408 29.9811 16.2538C29.935 15.9668 29.8065 15.6994 29.6112 15.4842V15.4842Z" fill="white"/>
</svg>
