<svg width="24" height="24" fill="none" xmlns="http://www.w3.org/2000/svg"><path fill-rule="evenodd" clip-rule="evenodd" d="M12 4.71c-1.603 0-2.902 1.216-2.902 2.716 0 1.5 1.3 2.715 2.902 2.715 1.603 0 2.902-1.216 2.902-2.715 0-1.5-1.299-2.715-2.902-2.715zM7.098 7.427C7.098 4.893 9.293 2.84 12 2.84c2.707 0 4.902 2.053 4.902 4.586 0 2.533-2.195 4.586-4.902 4.586-2.707 0-4.902-2.053-4.902-4.586zM9.518 15.367C6.47 15.367 4 17.678 4 20.53v.085c0 .517-.448.936-1 .936s-1-.42-1-.936v-.085c0-3.884 3.366-7.033 7.518-7.033h4.964c4.152 0 7.518 3.149 7.518 7.033v.085c0 .517-.448.936-1 .936s-1-.42-1-.936v-.085c0-2.851-2.47-5.162-5.518-5.162H9.518z" fill="#949496"/></svg>